<?xml version="1.0" encoding="utf-8"?>
<!-- Generator: Adobe Illustrator 15.0.0, SVG Export Plug-In . SVG Version: 6.00 Build 0)  -->
<!DOCTYPE svg PUBLIC "-//W3C//DTD SVG 1.1//EN" "http://www.w3.org/Graphics/SVG/1.1/DTD/svg11.dtd">
<svg version="1.1"  xmlns="http://www.w3.org/2000/svg" xmlns:xlink="http://www.w3.org/1999/xlink" x="0px" y="0px"
	 width="48px" height="48px" viewBox="0 0 48 48" enable-background="new 0 0 48 48" xml:space="preserve">
<path fill="#673AB7" d="M6,10c0-2.209,1.791-4,4-4h28c2.209,0,4,1.791,4,4v28c0,2.209-1.791,4-4,4H10c-2.209,0-4-1.791-4-4V10z"/>
<g>
	<path fill="#FFF59D" d="M29.336,13.82C31.58,15.834,33,18.748,33,22c0,6.074-4.926,11-11,11c-3.252,0-6.166-1.42-8.179-3.664
		C15.561,33.817,19.904,37,25,37c6.627,0,12-5.373,12-12C37,19.904,33.817,15.561,29.336,13.82z"/>
	<polygon fill="#FFF59D" points="21,19 20,14 21,9 22,14 	"/>
	<polygon fill="#FFF59D" points="25.271,11.4 21.521,14.854 16.729,16.6 20.48,13.146 	"/>
	<polygon fill="#FFF59D" points="25.139,16.807 20.439,14.828 16.863,11.194 21.562,13.174 	"/>
	<polygon fill="#FFF59D" points="12.99,26 12,22 12.99,18 14,22 	"/>
	<polygon fill="#FFF59D" points="9.641,24.172 12.455,21.162 16.348,19.811 13.545,22.838 	"/>
	<polygon fill="#FFF59D" points="9.53,20.01 13.494,21.132 16.479,23.973 12.504,22.868 	"/>
</g>
</svg>
