<?xml version="1.0" encoding="utf-8"?>
<!-- Generator: Adobe Illustrator 21.0.2, SVG Export Plug-In . SVG Version: 6.00 Build 0)  -->
<svg xmlns="http://www.w3.org/2000/svg" xmlns:xlink="http://www.w3.org/1999/xlink" version="1.1" id="Layer_1" x="0px" y="0px" viewBox="0 0 48 48" style="enable-background:new 0 0 48 48;" xml:space="preserve">
<g id="surface1">
	<rect x="23" y="11.9" style="fill:#536DFE;" width="2" height="24.2"/>
	
		<rect x="23" y="11.6" transform="matrix(0.4878 -0.8729 0.8729 0.4878 -8.6587 33.2418)" style="fill:#536DFE;" width="2" height="24.7"/>
	
		<rect x="11.6" y="23" transform="matrix(0.8729 -0.488 0.488 0.8729 -8.6599 14.7623)" style="fill:#536DFE;" width="24.7" height="2"/>
	
		<rect x="23.5" y="11.8" transform="matrix(0.8575 -0.5145 0.5145 0.8575 -9.1138 16.097)" style="fill:#536DFE;" width="2" height="25.3"/>
	
		<rect x="10.8" y="23.5" transform="matrix(0.5146 -0.8574 0.8574 0.5146 -9.6005 32.0404)" style="fill:#536DFE;" width="25.3" height="2"/>
	<rect x="11" y="23" style="fill:#536DFE;" width="26" height="2"/>
	<path style="fill:#448AFF;" d="M20,14.5c0,0.8-0.7,1.5-1.5,1.5S17,15.3,17,14.5s0.7-1.5,1.5-1.5S20,13.7,20,14.5z"/>
	<path style="fill:#448AFF;" d="M38,24c0,0.8-0.7,1.5-1.5,1.5S35,24.8,35,24s0.7-1.5,1.5-1.5S38,23.2,38,24z"/>
	<path style="fill:#448AFF;" d="M13,24c0,0.8-0.7,1.5-1.5,1.5S10,24.8,10,24s0.7-1.5,1.5-1.5S13,23.2,13,24z"/>
	<path style="fill:#448AFF;" d="M32,34.5c0,0.8-0.7,1.5-1.5,1.5S29,35.3,29,34.5s0.7-1.5,1.5-1.5S32,33.7,32,34.5z"/>
	<path style="fill:#448AFF;" d="M31,14.5c0,0.8-0.7,1.5-1.5,1.5S28,15.3,28,14.5s0.7-1.5,1.5-1.5S31,13.7,31,14.5z"/>
	<path style="fill:#448AFF;" d="M19,34.5c0,0.8-0.7,1.5-1.5,1.5S16,35.3,16,34.5s0.7-1.5,1.5-1.5S19,33.7,19,34.5z"/>
	
		<rect x="5.5" y="30.7" transform="matrix(0.8716 -0.4902 0.4902 0.8716 -14.2569 9.0448)" style="fill:#8C9EFF;" width="9.2" height="2"/>
	
		<rect x="33.8" y="15.1" transform="matrix(0.8719 -0.4897 0.4897 0.8719 -3.0197 20.7212)" style="fill:#8C9EFF;" width="8.7" height="2"/>
	<polygon style="fill:#8C9EFF;" points="41.3,21.4 32.7,19.2 35,10.7 36.9,11.3 35.2,17.7 41.8,19.5  "/>
	<polygon style="fill:#8C9EFF;" points="13,37.3 11.1,36.7 12.8,30.3 6.2,28.5 6.7,26.6 15.3,28.8  "/>
	<rect x="23" y="4" style="fill:#8C9EFF;" width="2" height="9"/>
	<polygon style="fill:#8C9EFF;" points="24,14.3 17.7,8.2 19.1,6.8 24,11.5 28.9,6.8 30.3,8.2  "/>
	<rect x="23" y="35" style="fill:#8C9EFF;" width="2" height="9"/>
	<polygon style="fill:#8C9EFF;" points="28.9,41.2 24,36.5 19.1,41.2 17.7,39.8 24,33.7 30.3,39.8  "/>
	<path style="fill:#8C9EFF;" d="M41.4,34.9l-0.9-0.5c-2.2-1.2-4.3-2.4-6.5-3.7l-0.9-0.5l1-1.7L35,29c2.2,1.2,4.3,2.4,6.5,3.7   l0.9,0.5L41.4,34.9z"/>
	<polygon style="fill:#8C9EFF;" points="35,37.3 32.7,28.8 41.3,26.6 41.8,28.5 35.2,30.3 36.9,36.7  "/>
	
		<rect x="9.2" y="11.6" transform="matrix(0.4879 -0.8729 0.8729 0.4879 -8.9947 17.2143)" style="fill:#8C9EFF;" width="2" height="9.3"/>
	<polygon style="fill:#8C9EFF;" points="6.7,21.4 6.2,19.5 12.8,17.7 11.1,11.3 13,10.7 15.3,19.2  "/>
</g>
</svg>
