<?xml version="1.0" encoding="utf-8"?>
<!-- Generator: Adobe Illustrator 15.0.0, SVG Export Plug-In . SVG Version: 6.00 Build 0)  -->
<!DOCTYPE svg PUBLIC "-//W3C//DTD SVG 1.1//EN" "http://www.w3.org/Graphics/SVG/1.1/DTD/svg11.dtd">
<svg version="1.1"  xmlns="http://www.w3.org/2000/svg" xmlns:xlink="http://www.w3.org/1999/xlink" x="0px" y="0px"
	 width="48px" height="48px" viewBox="0 0 48 48" enable-background="new 0 0 48 48" xml:space="preserve">
<g>
	<circle fill="#BBDEFB" cx="29.5" cy="14.5" r="8.5"/>
	<circle fill="#BBDEFB" cx="37" cy="22.893" r="7"/>
	<circle fill="#BBDEFB" cx="11" cy="23" r="7"/>
	<circle fill="#BBDEFB" cx="17.5" cy="15.5" r="6.5"/>
	<circle fill="#BBDEFB" cx="25" cy="20.893" r="7"/>
	<path fill="#BBDEFB" d="M7,26c0,2.209,1.791,4,4,4h25c2.209,0,4-1.791,4-4v-1c0-2.209-1.791-4-4-4H11c-2.209,0-4,1.791-4,4V26z"/>
</g>
<g>
	<rect x="23" y="33" fill="#2196F3" width="2" height="9"/>
	<rect x="23" y="33" transform="matrix(0.5069 -0.862 0.862 0.5069 -20.4908 39.1776)" fill="#2196F3" width="2" height="9"/>
	<rect x="23" y="33" transform="matrix(-0.4895 -0.872 0.872 -0.4895 3.0477 76.7842)" fill="#2196F3" width="1.999" height="9"/>
</g>
</svg>
