<?xml version="1.0" encoding="utf-8"?>
<!-- Generator: Adobe Illustrator 15.0.0, SVG Export Plug-In . SVG Version: 6.00 Build 0)  -->
<!DOCTYPE svg PUBLIC "-//W3C//DTD SVG 1.1//EN" "http://www.w3.org/Graphics/SVG/1.1/DTD/svg11.dtd">
<svg version="1.1"  xmlns="http://www.w3.org/2000/svg" xmlns:xlink="http://www.w3.org/1999/xlink" x="0px" y="0px"
	 width="48px" height="48px" viewBox="0 0 48 48" enable-background="new 0 0 48 48" xml:space="preserve">
<g>
	<circle fill="#BBDEFB" cx="29.5" cy="13.5" r="8.5"/>
	<circle fill="#BBDEFB" cx="37" cy="21.893" r="7"/>
	<circle fill="#BBDEFB" cx="11" cy="22" r="7"/>
	<circle fill="#BBDEFB" cx="17.5" cy="14.5" r="6.5"/>
	<circle fill="#BBDEFB" cx="25" cy="19.893" r="7"/>
	<path fill="#BBDEFB" d="M7,25c0,2.209,1.791,4,4,4h25c2.209,0,4-1.791,4-4v-1c0-2.209-1.791-4-4-4H11c-2.209,0-4,1.791-4,4V25z"/>
</g>
<g>
	<circle fill="#2196F3" cx="24" cy="30" r="1"/>
	<circle fill="#2196F3" cx="23" cy="33" r="1"/>
	<circle fill="#2196F3" cx="22" cy="36" r="1"/>
	<circle fill="#2196F3" cx="21" cy="39" r="1"/>
	<circle fill="#2196F3" cx="20" cy="42" r="1"/>
	<circle fill="#2196F3" cx="17" cy="33" r="1"/>
	<circle fill="#2196F3" cx="16" cy="36" r="1"/>
	<circle fill="#2196F3" cx="15" cy="39" r="1"/>
	<circle fill="#2196F3" cx="18" cy="30" r="1"/>
	<circle fill="#2196F3" cx="29" cy="33" r="1"/>
	<circle fill="#2196F3" cx="28" cy="36" r="1"/>
	<circle fill="#2196F3" cx="27" cy="39" r="1"/>
	<circle fill="#2196F3" cx="30" cy="30" r="1"/>
</g>
</svg>
