<?xml version="1.0" encoding="utf-8"?>
<!-- Generator: Adobe Illustrator 15.0.0, SVG Export Plug-In . SVG Version: 6.00 Build 0)  -->
<!DOCTYPE svg PUBLIC "-//W3C//DTD SVG 1.1//EN" "http://www.w3.org/Graphics/SVG/1.1/DTD/svg11.dtd">
<svg version="1.1"  xmlns="http://www.w3.org/2000/svg" xmlns:xlink="http://www.w3.org/1999/xlink" x="0px" y="0px"
	 width="48px" height="48px" viewBox="0 0 48 48" enable-background="new 0 0 48 48" xml:space="preserve">
<path fill="#673AB7" d="M6,10c0-2.209,1.791-4,4-4h28c2.209,0,4,1.791,4,4v28c0,2.209-1.791,4-4,4H10c-2.209,0-4-1.791-4-4V10z"/>
<g>
	<path fill="#FFF59D" d="M21.659,9c1.857,1.666,3.032,4.077,3.032,6.769c0,5.025-4.076,9.102-9.102,9.102
		c-2.69,0-5.102-1.175-6.768-3.032c1.439,3.709,5.034,6.342,9.25,6.342c5.483,0,9.929-4.445,9.929-9.93
		C28,14.034,25.367,10.439,21.659,9z"/>
	<polygon fill="#FFF59D" points="34.511,19 33.521,15 34.511,11 35.521,15 	"/>
	<polygon fill="#FFF59D" points="31.162,17.172 33.976,14.162 37.869,12.811 35.066,15.838 	"/>
	<polygon fill="#FFF59D" points="31.051,13.01 35.016,14.132 38,16.973 34.025,15.868 	"/>
</g>
<g>
	<circle fill="#B39DDB" cx="28" cy="27" r="6"/>
	<circle fill="#B39DDB" cx="33" cy="33" r="5"/>
	<circle fill="#B39DDB" cx="15" cy="33" r="5"/>
	<circle fill="#B39DDB" cx="19.5" cy="27.5" r="4.5"/>
	<circle fill="#B39DDB" cx="24.7" cy="31.426" r="4.9"/>
	<path fill="#B39DDB" d="M12,35.199C12,36.746,13.253,38,14.8,38h17.5c1.546,0,2.8-1.254,2.8-2.801V34.5
		c0-1.546-1.254-2.801-2.8-2.801H14.8c-1.546,0-2.8,1.255-2.8,2.801V35.199z"/>
</g>
</svg>
