<?xml version="1.0" encoding="utf-8"?>
<!-- Generator: Adobe Illustrator 15.0.0, SVG Export Plug-In . SVG Version: 6.00 Build 0)  -->
<!DOCTYPE svg PUBLIC "-//W3C//DTD SVG 1.1//EN" "http://www.w3.org/Graphics/SVG/1.1/DTD/svg11.dtd">
<svg version="1.1"  xmlns="http://www.w3.org/2000/svg" xmlns:xlink="http://www.w3.org/1999/xlink" x="0px" y="0px"
	 width="48px" height="48px" viewBox="0 0 48 48" enable-background="new 0 0 48 48" xml:space="preserve">
<g>
	<circle fill="#BBDEFB" cx="29.5" cy="13.5" r="8.5"/>
	<circle fill="#BBDEFB" cx="37" cy="21.893" r="7"/>
	<circle fill="#BBDEFB" cx="11" cy="22" r="7"/>
	<circle fill="#BBDEFB" cx="17.5" cy="14.5" r="6.5"/>
	<circle fill="#BBDEFB" cx="25" cy="19.893" r="7"/>
	<path fill="#BBDEFB" d="M7,25c0,2.209,1.791,4,4,4h25c2.209,0,4-1.791,4-4v-1c0-2.209-1.791-4-4-4H11c-2.209,0-4,1.791-4,4V25z"/>
</g>
<g>
	<rect x="23" y="34" fill="#2196F3" width="2" height="9"/>
	
		<rect x="23" y="33.999" transform="matrix(-0.5071 0.8619 -0.8619 -0.5071 69.3514 37.3369)" fill="#2196F3" width="2" height="9"/>
	
		<rect x="23.001" y="34" transform="matrix(0.4897 0.8719 -0.8719 0.4897 45.8148 -1.2789)" fill="#2196F3" width="1.998" height="9"/>
	<rect x="10" y="31" fill="#2196F3" width="2" height="9"/>
	
		<rect x="10" y="30.999" transform="matrix(-0.5067 0.8621 -0.8621 -0.5067 47.1784 44.0037)" fill="#2196F3" width="2" height="9"/>
	
		<rect x="10.001" y="31" transform="matrix(0.4897 0.8719 -0.8719 0.4897 36.5653 8.5247)" fill="#2196F3" width="1.998" height="9"/>
	<rect x="36" y="31" fill="#2196F3" width="2" height="9"/>
	
		<rect x="35.999" y="30.998" transform="matrix(-0.5069 0.862 -0.862 -0.5069 86.3539 21.6007)" fill="#2196F3" width="2" height="9"/>
	
		<rect x="36" y="31" transform="matrix(0.4897 0.8719 -0.8719 0.4897 49.8327 -14.144)" fill="#2196F3" width="1.998" height="9.001"/>
</g>
</svg>
