<?xml version="1.0" encoding="utf-8"?>
<!-- Generator: Adobe Illustrator 15.0.0, SVG Export Plug-In . SVG Version: 6.00 Build 0)  -->
<!DOCTYPE svg PUBLIC "-//W3C//DTD SVG 1.1//EN" "http://www.w3.org/Graphics/SVG/1.1/DTD/svg11.dtd">
<svg xmlns="http://www.w3.org/2000/svg" xmlns:xlink="http://www.w3.org/1999/xlink" version="1.1" id="Слой_1" x="0px" y="0px" width="48px" height="48px" viewBox="0 0 48 48" enable-background="new 0 0 48 48" xml:space="preserve">
<path fill="#1E88E5" d="M36,8c0-2.761-6.044-5-13.5-5S9,5.239,9,8c-1,5,24,26,0,37C12.942,44.664,39,40,36,8z"/>
<g>
	<path fill="#0D47A1" d="M34.84,23.338c-5.516,2.832-12.685,2.586-16.721,2.134c0.458,1.209,0.824,2.434,1.055,3.659   c5.131,1.779,10.281,0.796,13.717-0.358c0.811-1.647,1.509-3.452,2.051-5.443C34.906,23.332,34.875,23.335,34.84,23.338z"/>
	<path fill="#0D47A1" d="M18.959,35.357c-0.395,1.32-1.044,2.61-2.01,3.85c0.579,1.101,1.331,2.061,2.121,2.859   c1.691-0.795,3.448-1.798,5.169-3.05C21.745,38.437,20.066,36.92,18.959,35.357z"/>
	<path fill="#0D47A1" d="M28.271,35.458c0.471-0.503,0.933-1.025,1.379-1.581c-4.457,0.718-8.264-0.42-10.225-1.217   c-0.022,0.398-0.063,0.794-0.125,1.188C22.104,35.398,25.637,35.601,28.271,35.458z"/>
	<path fill="#0D47A1" d="M33.849,10.145c0.393-0.616,0.291-1.107,0.29-1.112l-0.043-0.289C34.096,7.923,30.332,6,23.033,6   c-5.688,0-8.531,1.451-8.651,2.002c0.203,0.349,2.448,1.388,6.722,1.388c2.362,0,3.995-0.412,4.757-0.77   c-0.838-0.223-2.415-0.341-3.967,0.093c-0.532,0.149-1.083-0.163-1.232-0.695c-0.148-0.532,0.163-1.083,0.695-1.232   c2.278-0.633,5.088-0.422,6.265,0.472c0.572,0.435,0.658,0.949,0.658,1.216c0,2.152-3.866,2.916-7.176,2.916   c-3.239,0-8.721-0.715-8.721-3.396C12.382,5.25,17.903,4,23.033,4c5.841,0,12.091,1.281,12.957,4.072C35.991,8.048,36,8.024,36,8   c0-2.761-6.044-5-13.5-5S9,5.239,9,8s6.044,5,13.5,5c3.891,0,7.387-0.613,9.85-1.589C33.199,10.948,33.634,10.482,33.849,10.145z"/>
</g>
<path fill="#1565C0" d="M36.113,16.361c-10.405,4.187-19.018,1.274-23.582-1.12c1.225,1.899,2.584,4.024,3.773,6.271  c6.042,2.382,14.139,2.176,18.536,1.825c0.039-0.021,0.078-0.043,0.118-0.063C35.525,21.177,35.924,18.877,36.113,16.361z"/>
<g>
	<path fill="#90CAF9" d="M34.419,25.036c0.251-0.755,0.476-1.543,0.679-2.354c-10.016,3.741-16.444,0.583-18.622-0.839   c0.507,0.978,0.979,1.977,1.391,2.988C21.204,26.267,26.828,27.504,34.419,25.036z"/>
	<path fill="#90CAF9" d="M31.736,30.889c-2.567,0.924-7.539,2.045-12.385-0.572c0.086,0.76,0.118,1.518,0.08,2.27   c2.237,1.014,4.453,1.388,6.469,1.388c1.479,0,2.847-0.194,4.041-0.464C30.572,32.694,31.174,31.821,31.736,30.889z"/>
	<path fill="#90CAF9" d="M17.047,42.938c-0.893-0.41-1.397-1.229-1.68-2.018c-0.487,0.454-1.02,0.9-1.611,1.336   c0.248,0.522,0.581,1.035,1.02,1.488C15.498,43.516,16.258,43.248,17.047,42.938z"/>
	<path fill="#90CAF9" d="M36.139,15.852c-14.517,2.836-22.588-1.592-25.762-4.041c0.68,1.162,1.55,2.49,2.482,3.94   c3.188,1.6,7.811,3.056,14.15,3.056c2.67,0,5.648-0.266,8.94-0.88C36.027,17.25,36.094,16.563,36.139,15.852z"/>
</g>
</svg>
